<svg width="32" height="32" viewBox="0 0 32 32" fill="none" xmlns="http://www.w3.org/2000/svg">
<g clip-path="url(#clip0_623_5293)">
<path fill-rule="evenodd" clip-rule="evenodd" d="M0 3.2C0 1.42933 1.43147 0 3.2 0H28.8C30.5685 0 32 1.42933 32 3.2V22.3872C32 24.1557 30.5685 25.5851 28.8 25.5851H20.8384L16.8875 31.5051C16.7901 31.6512 16.6581 31.7709 16.5033 31.8538C16.3485 31.9366 16.1756 31.98 16 31.98C15.8244 31.98 15.6515 31.9366 15.4967 31.8538C15.3419 31.7709 15.2099 31.6512 15.1125 31.5051L11.1637 25.5851H3.2C1.43147 25.5851 0 24.1557 0 22.3851V3.2ZM14.9845 18.624L23.2021 9.23307L21.5979 7.82933L14.8821 15.5051L11.4219 12.0427L9.91147 13.5531L14.9845 18.624Z" fill="#5BBB56"/>
</g>
<defs>
<clipPath id="clip0_623_5293">
<rect width="32" height="32" fill="white"/>
</clipPath>
</defs>
</svg>
