<svg width="20" height="17" viewBox="0 0 20 17" fill="none" xmlns="http://www.w3.org/2000/svg">
<path d="M2 16.0361C1.45 16.0361 0.979333 15.8405 0.588 15.4491C0.196667 15.0578 0.000666667 14.5868 0 14.0361V2.03613C0 1.48613 0.196 1.01547 0.588 0.624133C0.98 0.232799 1.45067 0.0367995 2 0.0361328H18C18.55 0.0361328 19.021 0.232133 19.413 0.624133C19.805 1.01613 20.0007 1.4868 20 2.03613V14.0361C20 14.5861 19.8043 15.0571 19.413 15.4491C19.0217 15.8411 18.5507 16.0368 18 16.0361H2ZM10 9.03613L18 4.03613V2.03613L10 7.03613L2 2.03613V4.03613L10 9.03613Z" fill="#192051"/>
</svg>
