<svg width="20" height="20" viewBox="0 0 20 20" fill="none" xmlns="http://www.w3.org/2000/svg">
<path fill-rule="evenodd" clip-rule="evenodd" d="M4.77012 1.08202C8.24615 0.696945 11.7541 0.696945 15.2301 1.08202C17.1291 1.29402 18.6601 2.78902 18.8831 4.69502C19.2951 8.21969 19.2951 11.7803 18.8831 15.305C18.6601 17.211 17.1291 18.706 15.2311 18.919C11.7548 19.3042 8.24648 19.3042 4.77012 18.919C2.87112 18.706 1.34012 17.211 1.11712 15.306C0.705101 11.781 0.705101 8.22002 1.11712 4.69502C1.34012 2.78902 2.87112 1.29402 4.77012 1.08202ZM15.0001 4.00002C14.7349 4.00002 14.4805 4.10537 14.293 4.29291C14.1055 4.48045 14.0001 4.7348 14.0001 5.00002C14.0001 5.26523 14.1055 5.51959 14.293 5.70712C14.4805 5.89466 14.7349 6.00002 15.0001 6.00002C15.2653 6.00002 15.5197 5.89466 15.7072 5.70712C15.8948 5.51959 16.0001 5.26523 16.0001 5.00002C16.0001 4.7348 15.8948 4.48045 15.7072 4.29291C15.5197 4.10537 15.2653 4.00002 15.0001 4.00002ZM5.25012 10C5.25012 8.74024 5.75056 7.53206 6.64136 6.64126C7.53216 5.75046 8.74034 5.25002 10.0001 5.25002C11.2599 5.25002 12.4681 5.75046 13.3589 6.64126C14.2497 7.53206 14.7501 8.74024 14.7501 10C14.7501 11.2598 14.2497 12.468 13.3589 13.3588C12.4681 14.2496 11.2599 14.75 10.0001 14.75C8.74034 14.75 7.53216 14.2496 6.64136 13.3588C5.75056 12.468 5.25012 11.2598 5.25012 10Z" fill="#232D70"/>
</svg>
