<svg width="16" height="18" viewBox="0 0 16 18" fill="none" xmlns="http://www.w3.org/2000/svg">
<path d="M6 10C5.16667 10 4.45833 9.70833 3.875 9.125C3.29167 8.54167 3 7.83333 3 7C3 6.63333 3.05833 6.28767 3.175 5.963C3.29167 5.63833 3.46667 5.34233 3.7 5.075C3.63333 4.90833 3.58333 4.73333 3.55 4.55C3.51667 4.36667 3.5 4.18333 3.5 4C3.5 3.36667 3.671 2.80433 4.013 2.313C4.355 1.82167 4.80067 1.459 5.35 1.225C5.68333 0.841667 6.075 0.541667 6.525 0.325C6.975 0.108333 7.46667 0 8 0C8.53333 0 9.025 0.108333 9.475 0.325C9.925 0.541667 10.3167 0.841667 10.65 1.225C11.2 1.45833 11.646 1.821 11.988 2.313C12.33 2.805 12.5007 3.36733 12.5 4C12.5 4.18333 12.4833 4.36667 12.45 4.55C12.4167 4.73333 12.3667 4.90833 12.3 5.075C12.5333 5.34167 12.7083 5.63767 12.825 5.963C12.9417 6.28833 13 6.634 13 7C13 7.83333 12.7083 8.54167 12.125 9.125C11.5417 9.70833 10.8333 10 10 10H6ZM6 8H10C10.2833 8 10.521 7.9 10.713 7.7C10.905 7.5 11.0007 7.26667 11 7C11 6.88333 10.9793 6.775 10.938 6.675C10.8967 6.575 10.834 6.475 10.75 6.375C10.5667 6.15833 10.4457 5.94567 10.387 5.737C10.3283 5.52833 10.2993 5.33267 10.3 5.15C10.3 4.88333 10.3333 4.65433 10.4 4.463C10.4667 4.27167 10.5 4.11733 10.5 4C10.5 3.8 10.4417 3.61667 10.325 3.45C10.2083 3.28333 10.0583 3.15833 9.875 3.075C9.725 3.00833 9.58733 2.93333 9.462 2.85C9.33667 2.76667 9.22433 2.65833 9.125 2.525C9.04167 2.425 8.904 2.31267 8.712 2.188C8.52 2.06333 8.28267 2.00067 8 2C7.71733 1.99933 7.48 2.066 7.288 2.2C7.096 2.334 6.95833 2.45067 6.875 2.55C6.775 2.66667 6.66267 2.76667 6.538 2.85C6.41333 2.93333 6.27567 3.00833 6.125 3.075C5.94167 3.15833 5.79167 3.28333 5.675 3.45C5.55833 3.61667 5.5 3.8 5.5 4C5.5 4.11667 5.53333 4.27067 5.6 4.462C5.66667 4.65333 5.7 4.88267 5.7 5.15C5.7 5.33333 5.67067 5.529 5.612 5.737C5.55333 5.945 5.43267 6.15767 5.25 6.375C5.16667 6.475 5.10433 6.575 5.063 6.675C5.02167 6.775 5.00067 6.88333 5 7C5 7.26667 5.096 7.5 5.288 7.7C5.48 7.9 5.71733 8 6 8ZM0 18V15.2C0 14.6333 0.146 14.1127 0.438 13.638C0.73 13.1633 1.11733 12.8007 1.6 12.55C2.63333 12.0333 3.68333 11.646 4.75 11.388C5.81667 11.13 6.9 11.0007 8 11C9.1 10.9993 10.1833 11.1287 11.25 11.388C12.3167 11.6473 13.3667 12.0347 14.4 12.55C14.8833 12.8 15.271 13.1627 15.563 13.638C15.855 14.1133 16.0007 14.634 16 15.2V18H0ZM2 16H14V15.2C14 15.0167 13.9543 14.85 13.863 14.7C13.7717 14.55 13.6507 14.4333 13.5 14.35C12.6 13.9 11.6917 13.5627 10.775 13.338C9.85833 13.1133 8.93333 13.0007 8 13C7.06667 12.9993 6.14167 13.112 5.225 13.338C4.30833 13.564 3.4 13.9013 2.5 14.35C2.35 14.4333 2.229 14.55 2.137 14.7C2.045 14.85 1.99933 15.0167 2 15.2V16Z" fill="#3747B2"/>
</svg>
