<svg width="21" height="16" viewBox="0 0 21 16" fill="none" xmlns="http://www.w3.org/2000/svg">
<path d="M19.1481 1.37925C20.3531 2.65906 21 4.09447 21 6.42129C21 10.5158 18.1268 14.1856 13.9458 16L12.9011 14.3879C16.8026 12.2775 17.5653 9.53893 17.8706 7.81224C17.2424 8.13746 16.42 8.25093 15.6128 8.17606C13.5024 7.9807 11.8389 6.24815 11.8389 4.09446C11.8389 3.00855 12.2703 1.9671 13.0381 1.19924C13.806 0.43138 14.8475 0 15.9334 0C17.1886 0 18.39 0.573225 19.1481 1.37925ZM7.44964 1.37925C8.65458 2.65906 9.30151 4.09447 9.30151 6.42129C9.30151 10.5158 6.42836 14.1856 2.24733 16L1.20265 14.3879C5.10409 12.2775 5.86683 9.53893 6.17099 7.81224C5.54279 8.13746 4.72038 8.25093 3.91436 8.17606C1.80395 7.98187 0.141602 6.24932 0.141602 4.09446C0.141602 3.00855 0.572981 1.9671 1.34084 1.19924C2.1087 0.43138 3.15015 0 4.23607 0C5.49131 0 6.69275 0.573225 7.45081 1.37925" fill="#3747B2"/>
</svg>
