<svg width="17" height="17" viewBox="0 0 17 17" fill="none" xmlns="http://www.w3.org/2000/svg">
<path fill-rule="evenodd" clip-rule="evenodd" d="M12.2659 11.0275C13.3051 9.68778 13.7948 8.00252 13.6355 6.31454C13.4762 4.62656 12.6798 3.06267 11.4084 1.94103C10.1369 0.819389 8.48596 0.224251 6.79129 0.276692C5.09662 0.329132 3.48559 1.02521 2.28593 2.22332C1.08522 3.42226 0.386869 5.03392 0.333176 6.72987C0.279483 8.42583 0.874492 10.0784 1.99695 11.3509C3.11941 12.6234 4.68484 13.42 6.37424 13.5784C8.06363 13.7368 9.74985 13.245 11.0893 12.2033L11.1251 12.2408L14.6601 15.7767C14.7375 15.8541 14.8294 15.9155 14.9306 15.9574C15.0318 15.9993 15.1402 16.0209 15.2497 16.0209C15.3592 16.0209 15.4676 15.9993 15.5688 15.9574C15.6699 15.9155 15.7618 15.8541 15.8393 15.7767C15.9167 15.6992 15.9781 15.6073 16.02 15.5061C16.0619 15.405 16.0835 15.2966 16.0835 15.1871C16.0835 15.0776 16.0619 14.9691 16.02 14.868C15.9781 14.7668 15.9167 14.6749 15.8393 14.5975L12.3034 11.0625L12.2659 11.0275ZM10.5359 3.40249C11.0064 3.86538 11.3806 4.41686 11.6369 5.0251C11.8932 5.63334 12.0266 6.28631 12.0293 6.94634C12.0319 7.60637 11.9039 8.2604 11.6526 8.8707C11.4012 9.48101 11.0316 10.0355 10.5648 10.5022C10.0981 10.9689 9.54362 11.3386 8.93331 11.59C8.323 11.8413 7.66897 11.9693 7.00894 11.9667C6.34891 11.964 5.69595 11.8306 5.08771 11.5743C4.47947 11.318 3.92799 10.9438 3.46509 10.4733C2.54003 9.53306 2.02397 8.26535 2.02934 6.94634C2.03472 5.62732 2.56107 4.36385 3.49377 3.43116C4.42646 2.49847 5.68993 1.97211 7.00894 1.96674C8.32796 1.96136 9.59567 2.47742 10.5359 3.40249Z" fill="#626262"/>
</svg>
