<svg width="32" height="32" viewBox="0 0 32 32" fill="none" xmlns="http://www.w3.org/2000/svg">
<path d="M10.6668 14.6667C10.3132 14.6667 9.97407 14.8072 9.72402 15.0573C9.47397 15.3073 9.3335 15.6465 9.3335 16.0001C9.3335 16.3537 9.47397 16.6928 9.72402 16.9429C9.97407 17.1929 10.3132 17.3334 10.6668 17.3334H21.3335C21.6871 17.3334 22.0263 17.1929 22.2763 16.9429C22.5264 16.6928 22.6668 16.3537 22.6668 16.0001C22.6668 15.6465 22.5264 15.3073 22.2763 15.0573C22.0263 14.8072 21.6871 14.6667 21.3335 14.6667H10.6668Z" fill="#2C398F"/>
<path fill-rule="evenodd" clip-rule="evenodd" d="M30.6668 16C30.6668 24.1 24.1002 30.6667 16.0002 30.6667C7.90016 30.6667 1.3335 24.1 1.3335 16C1.3335 7.90004 7.90016 1.33337 16.0002 1.33337C24.1002 1.33337 30.6668 7.90004 30.6668 16ZM28.0002 16C28.0002 17.5759 27.6898 19.1363 27.0867 20.5922C26.4837 22.0481 25.5997 23.371 24.4854 24.4853C23.3711 25.5996 22.0483 26.4835 20.5924 27.0866C19.1365 27.6897 17.576 28 16.0002 28C14.4243 28 12.8639 27.6897 11.408 27.0866C9.95205 26.4835 8.62918 25.5996 7.51488 24.4853C6.40058 23.371 5.51666 22.0481 4.91361 20.5922C4.31055 19.1363 4.00016 17.5759 4.00016 16C4.00016 12.8174 5.26444 9.7652 7.51488 7.51476C9.76532 5.26432 12.8176 4.00004 16.0002 4.00004C19.1828 4.00004 22.235 5.26432 24.4854 7.51476C26.7359 9.7652 28.0002 12.8174 28.0002 16Z" fill="#2C398F"/>
</svg>
