<svg width="32" height="33" viewBox="0 0 32 33" fill="none" xmlns="http://www.w3.org/2000/svg">
<path fill-rule="evenodd" clip-rule="evenodd" d="M2.6665 16.5C2.6665 9.13596 8.63584 3.16663 15.9998 3.16663C23.3638 3.16663 29.3332 9.13596 29.3332 16.5C29.3332 23.864 23.3638 29.8333 15.9998 29.8333C8.63584 29.8333 2.6665 23.864 2.6665 16.5ZM15.9998 5.83329C13.1709 5.83329 10.4578 6.9571 8.45736 8.95749C6.45698 10.9579 5.33317 13.671 5.33317 16.5C5.33317 19.3289 6.45698 22.042 8.45736 24.0424C10.4578 26.0428 13.1709 27.1666 15.9998 27.1666C18.8288 27.1666 21.5419 26.0428 23.5423 24.0424C25.5427 22.042 26.6665 19.3289 26.6665 16.5C26.6665 13.671 25.5427 10.9579 23.5423 8.95749C21.5419 6.9571 18.8288 5.83329 15.9998 5.83329Z" fill="#2C398F"/>
<path fill-rule="evenodd" clip-rule="evenodd" d="M17.3333 9.83333C17.3333 9.47971 17.1929 9.14057 16.9428 8.89052C16.6928 8.64048 16.3536 8.5 16 8.5C15.6464 8.5 15.3072 8.64048 15.0572 8.89052C14.8071 9.14057 14.6667 9.47971 14.6667 9.83333V15.1667H9.33333C8.97971 15.1667 8.64057 15.3071 8.39052 15.5572C8.14048 15.8072 8 16.1464 8 16.5C8 16.8536 8.14048 17.1928 8.39052 17.4428C8.64057 17.6929 8.97971 17.8333 9.33333 17.8333H14.6667V23.1667C14.6667 23.5203 14.8071 23.8594 15.0572 24.1095C15.3072 24.3595 15.6464 24.5 16 24.5C16.3536 24.5 16.6928 24.3595 16.9428 24.1095C17.1929 23.8594 17.3333 23.5203 17.3333 23.1667V17.8333H22.6667C23.0203 17.8333 23.3594 17.6929 23.6095 17.4428C23.8595 17.1928 24 16.8536 24 16.5C24 16.1464 23.8595 15.8072 23.6095 15.5572C23.3594 15.3071 23.0203 15.1667 22.6667 15.1667H17.3333V9.83333Z" fill="#2C398F"/>
</svg>
