<svg width="22" height="24" viewBox="0 0 22 24" fill="none" xmlns="http://www.w3.org/2000/svg">
<path d="M14.6317 8.64631H16.4775C16.8423 8.64631 17.139 8.94218 17.139 9.30706V10.7294C17.139 11.0951 16.8423 11.3906 16.4775 11.3906H14.6317C14.4564 11.3906 14.2882 11.3209 14.1642 11.1969C14.0402 11.0729 13.9706 10.9048 13.9706 10.7294V9.30706C13.9706 8.94218 14.2668 8.64631 14.6317 8.64631ZM19.128 8.64631H20.973C21.3386 8.64631 21.6341 8.94218 21.6341 9.30706V10.7294C21.6341 11.0951 21.3386 11.3906 20.973 11.3906H19.128C18.9526 11.3906 18.7845 11.3209 18.6605 11.1969C18.5365 11.0729 18.4668 10.9048 18.4668 10.7294V9.30706C18.4669 9.13178 18.5366 8.96372 18.6606 8.83981C18.7846 8.71591 18.9527 8.64631 19.128 8.64631ZM10.044 8.64631H11.8901C12.255 8.64631 12.5508 8.94218 12.5508 9.30706V10.7294C12.5508 11.0951 12.255 11.3906 11.8901 11.3906H10.044C9.86874 11.3904 9.70078 11.3206 9.57695 11.1967C9.45313 11.0727 9.38358 10.9046 9.38358 10.7294V9.30706C9.38348 9.22029 9.40049 9.13436 9.43364 9.05417C9.46679 8.97398 9.51542 8.90112 9.57676 8.83975C9.63809 8.77838 9.71093 8.7297 9.79109 8.69651C9.87126 8.66332 9.95719 8.64626 10.044 8.64631ZM0.959953 8.64631H2.80533C3.1702 8.64631 3.46608 8.94218 3.46608 9.30706V10.7294C3.46608 11.0951 3.1702 11.3906 2.80533 11.3906H0.959953C0.784612 11.3906 0.616452 11.3209 0.492467 11.1969C0.368482 11.0729 0.298828 10.9048 0.298828 10.7294V9.30706C0.299027 9.13181 0.368757 8.96381 0.492709 8.83992C0.616662 8.71604 0.784707 8.64641 0.959953 8.64631ZM5.5582 8.64631H7.40395C7.76883 8.64631 8.06508 8.94218 8.06508 9.30706V10.7294C8.06508 11.0951 7.76883 11.3906 7.40395 11.3906H5.5582C5.47137 11.3907 5.38538 11.3736 5.30514 11.3404C5.22491 11.3072 5.15201 11.2585 5.09063 11.1971C5.02925 11.1357 4.98059 11.0628 4.94744 10.9825C4.91429 10.9023 4.89731 10.8163 4.89745 10.7294V9.30706C4.89745 8.94218 5.19333 8.64631 5.5582 8.64631ZM14.6827 17.0932H16.5285C16.8933 17.0932 17.1896 17.3891 17.1896 17.7547V19.1767C17.1896 19.5416 16.8933 19.8382 16.5285 19.8382H14.6827C14.5074 19.838 14.3393 19.7682 14.2154 19.6442C14.0915 19.5201 14.022 19.352 14.022 19.1767V17.7547C14.0221 17.5794 14.0917 17.4113 14.2155 17.2873C14.3394 17.1633 14.5074 17.0935 14.6827 17.0932ZM19.1797 17.0932H21.0247C21.3903 17.0932 21.6858 17.3891 21.6858 17.7547V19.1767C21.6858 19.5416 21.3903 19.8382 21.0247 19.8382H19.1797C19.0929 19.8382 19.0068 19.8211 18.9266 19.7878C18.8464 19.7546 18.7735 19.7058 18.7121 19.6444C18.6507 19.583 18.602 19.5101 18.5688 19.4298C18.5356 19.3495 18.5185 19.2635 18.5186 19.1767V17.7547C18.5186 17.3898 18.8141 17.0932 19.1797 17.0932ZM10.0957 17.0932H11.9411C12.306 17.0932 12.6018 17.3891 12.6018 17.7547V19.1767C12.6018 19.5416 12.306 19.8382 11.9411 19.8382H10.0953C10.0085 19.8382 9.92251 19.8211 9.84229 19.7879C9.76208 19.7547 9.68921 19.7059 9.62786 19.6445C9.56652 19.583 9.5179 19.5101 9.4848 19.4298C9.45169 19.3495 9.43476 19.2635 9.43495 19.1767V17.7547C9.43476 17.6679 9.45169 17.5818 9.4848 17.5016C9.5179 17.4213 9.56652 17.3483 9.62786 17.2869C9.68921 17.2254 9.76208 17.1767 9.84229 17.1435C9.92251 17.1102 10.0089 17.0931 10.0957 17.0932ZM1.01133 17.0932H2.8567C3.22158 17.0932 3.51783 17.3891 3.51783 17.7547V19.1767C3.51783 19.5416 3.22158 19.8382 2.8567 19.8382H1.01133C0.836017 19.838 0.667955 19.7682 0.544062 19.6442C0.420169 19.5201 0.350578 19.352 0.350578 19.1767V17.7547C0.350578 17.3898 0.646453 17.0932 1.01133 17.0932ZM5.60958 17.0932H7.45495C7.8202 17.0932 8.11608 17.3891 8.11608 17.7547V19.1767C8.11608 19.5416 7.8202 19.8382 7.45495 19.8382H5.60958C5.4342 19.8381 5.26604 19.7683 5.14207 19.6443C5.01809 19.5203 4.94845 19.3521 4.94845 19.1767V17.7547C4.94855 17.5793 5.01823 17.4112 5.14218 17.2872C5.26613 17.1631 5.43423 17.0934 5.60958 17.0932ZM16.8877 12.9067H18.7335C19.0983 12.9067 19.3946 13.2022 19.3946 13.5671V14.9894C19.3946 15.3551 19.0983 15.6502 18.7335 15.6502H16.8877C16.8009 15.6503 16.7149 15.6333 16.6346 15.6002C16.5544 15.567 16.4814 15.5184 16.42 15.457C16.3586 15.3956 16.3099 15.3227 16.2767 15.2425C16.2435 15.1623 16.2265 15.0763 16.2266 14.9894V13.5671C16.2268 13.3918 16.2965 13.2239 16.4205 13.1001C16.5444 12.9762 16.7125 12.9067 16.8877 12.9067ZM12.3 12.9067H14.1461C14.511 12.9067 14.8068 13.2022 14.8068 13.5671V14.9894C14.8069 15.0762 14.7899 15.1622 14.7567 15.2424C14.7236 15.3226 14.6749 15.3955 14.6135 15.4569C14.5521 15.5182 14.4793 15.5669 14.3991 15.6001C14.3188 15.6333 14.2329 15.6503 14.1461 15.6502H12.3C12.2132 15.6502 12.1273 15.6332 12.0471 15.6C11.9669 15.5668 11.8941 15.5181 11.8328 15.4567C11.7714 15.3954 11.7228 15.3225 11.6896 15.2423C11.6565 15.1621 11.6395 15.0762 11.6396 14.9894V13.5671C11.6395 13.4803 11.6566 13.3944 11.6897 13.3143C11.7229 13.2341 11.7716 13.1613 11.8329 13.1C11.8942 13.0387 11.967 12.99 12.0472 12.9569C12.1273 12.9237 12.2132 12.9066 12.3 12.9067ZM3.21633 12.9067H5.0617C5.42658 12.9067 5.72245 13.2022 5.72245 13.5671V14.9894C5.72255 15.0762 5.70553 15.1622 5.67236 15.2424C5.63919 15.3226 5.59052 15.3955 5.52914 15.4569C5.46777 15.5182 5.39489 15.5669 5.31468 15.6001C5.23447 15.6333 5.1485 15.6503 5.0617 15.6502H3.21633C3.1295 15.6503 3.04349 15.6333 2.96324 15.6002C2.88298 15.567 2.81006 15.5184 2.74864 15.457C2.68723 15.3956 2.63853 15.3227 2.60533 15.2425C2.57214 15.1623 2.5551 15.0763 2.5552 14.9894V13.5671C2.5552 13.2022 2.85145 12.9067 3.21633 12.9067ZM7.81458 12.9067H9.66033C10.0252 12.9067 10.3215 13.2022 10.3215 13.5671V14.9894C10.3215 15.3551 10.0252 15.6502 9.66033 15.6502H7.81458C7.72778 15.6503 7.64181 15.6333 7.5616 15.6001C7.48139 15.5669 7.40851 15.5182 7.34714 15.4569C7.28576 15.3955 7.23709 15.3226 7.20392 15.2424C7.17075 15.1622 7.15373 15.0762 7.15383 14.9894V13.5671C7.15378 13.4803 7.17084 13.3944 7.20403 13.3142C7.23722 13.234 7.2859 13.1612 7.34727 13.0999C7.40864 13.0385 7.4815 12.9899 7.56169 12.9567C7.64188 12.9236 7.72781 12.9066 7.81458 12.9067ZM3.29995 21.1049H18.6603C18.7471 21.1048 18.8331 21.1219 18.9133 21.155C18.9935 21.1882 19.0664 21.2369 19.1278 21.2982C19.1891 21.3596 19.2378 21.4325 19.271 21.5127C19.3042 21.5929 19.3212 21.6789 19.3211 21.7657V23.1656C19.3211 23.2523 19.3041 23.3382 19.2709 23.4184C19.2377 23.4986 19.189 23.5714 19.1276 23.6328C19.0663 23.6941 18.9934 23.7427 18.9132 23.7759C18.833 23.809 18.7471 23.826 18.6603 23.8259H3.29995C3.21315 23.8261 3.12718 23.8091 3.04695 23.776C2.96672 23.7429 2.89381 23.6942 2.8324 23.6329C2.77099 23.5715 2.72228 23.4987 2.68907 23.4185C2.65585 23.3383 2.63878 23.2524 2.63883 23.1656V21.7657C2.63883 21.4004 2.93508 21.1049 3.29995 21.1049ZM20.8995 4.79618C20.7948 3.85718 19.2341 0.442432 11.187 0.343807C2.71083 0.238432 0.927703 3.85756 0.946828 4.80668H6.5452C6.5452 4.02556 7.39608 3.86843 9.1507 3.68956C10.3125 3.57143 11.7495 3.53731 13.179 3.68956C14.1813 3.79681 15.1597 3.98393 15.1597 4.80181L20.8987 4.79618H20.8995ZM0.937453 6.82118C0.937453 7.18268 1.2322 7.44218 1.5622 7.44218L1.5652 7.44481L5.9317 7.44218C6.01318 7.44218 6.09385 7.42609 6.1691 7.39483C6.24434 7.36357 6.31267 7.31776 6.37016 7.26003C6.42765 7.20229 6.47317 7.13377 6.50411 7.0584C6.53505 6.98303 6.5508 6.90228 6.55045 6.82081V5.23456L0.937453 5.23531C0.937453 5.23531 0.935203 6.81706 0.936328 6.81856L0.937453 6.82118ZM15.1612 6.82043C15.1612 7.18193 15.4556 7.44143 15.786 7.44143L15.7886 7.44481L20.2811 7.44143C20.3626 7.44153 20.4433 7.42553 20.5186 7.39433C20.5939 7.36314 20.6623 7.31738 20.7199 7.25968C20.7774 7.20197 20.823 7.13346 20.8541 7.05808C20.8851 6.9827 20.9009 6.90194 20.9006 6.82043V5.23418H15.1616C15.1616 5.23418 15.159 6.81668 15.1601 6.81781L15.1616 6.82006L15.1612 6.82043Z" fill="#192051"/>
</svg>
