<svg width="25" height="24" viewBox="0 0 25 24" fill="none" xmlns="http://www.w3.org/2000/svg">
<path d="M18.1 6.32005C17.3669 5.58147 16.4943 4.99602 15.533 4.59773C14.5716 4.19945 13.5406 3.99628 12.5 4.00005C11.1089 4.00141 9.74248 4.36825 8.53771 5.06383C7.33294 5.75941 6.33208 6.75932 5.63534 7.96341C4.9386 9.16751 4.57046 10.5335 4.56776 11.9247C4.56507 13.3158 4.92793 14.6833 5.62 15.8901L4.5 20.0001L8.7 18.9001C9.85927 19.5465 11.1627 19.8904 12.49 19.9001C14.5997 19.9001 16.624 19.0669 18.1222 17.5817C19.6205 16.0965 20.4715 14.0796 20.49 11.9701C20.483 10.9174 20.2682 9.8764 19.8581 8.90686C19.448 7.93731 18.8505 7.05825 18.1 6.32005ZM12.5 18.5301C11.3178 18.5298 10.1574 18.2121 9.14 17.6101L8.9 17.4601L6.41 18.1201L7.07 15.6901L6.91 15.4401C6.05925 14.0667 5.74174 12.429 6.01762 10.8373C6.2935 9.24551 7.14361 7.81021 8.4069 6.80328C9.6702 5.79634 11.2589 5.28771 12.8721 5.37374C14.4853 5.45976 16.011 6.13447 17.16 7.27005C18.416 8.49825 19.135 10.1735 19.16 11.9301C19.1442 13.686 18.4355 15.3646 17.1882 16.6006C15.941 17.8367 14.256 18.5301 12.5 18.5301ZM16.11 13.5901C15.91 13.4901 14.94 13.0101 14.76 12.9501C14.58 12.8901 14.44 12.8501 14.31 13.0501C14.1144 13.3181 13.904 13.5752 13.68 13.8201C13.57 13.9601 13.45 13.9701 13.25 13.8201C12.1097 13.3694 11.1597 12.5395 10.56 11.4701C10.35 11.1201 10.76 11.1401 11.14 10.3901C11.1681 10.336 11.1827 10.276 11.1827 10.2151C11.1827 10.1541 11.1681 10.0941 11.14 10.0401C11.14 9.94005 10.69 8.96005 10.53 8.57005C10.37 8.18005 10.21 8.24005 10.08 8.23005H9.69C9.58884 8.23095 9.48908 8.25376 9.39758 8.29692C9.30608 8.34008 9.22503 8.40256 9.16 8.48005C8.93615 8.69862 8.76149 8.96242 8.64767 9.25385C8.53386 9.54527 8.48352 9.85762 8.5 10.1701C8.56153 10.9184 8.84339 11.6318 9.31 12.2201C10.1625 13.4955 11.3303 14.5289 12.7 15.2201C13.4185 15.6395 14.2535 15.8149 15.08 15.7201C15.3552 15.6654 15.6159 15.5535 15.845 15.3916C16.0742 15.2296 16.2667 15.0213 16.41 14.7801C16.544 14.486 16.5858 14.1583 16.53 13.8401C16.44 13.7401 16.31 13.6901 16.11 13.5901Z" fill="#3747B2"/>
</svg>
