<svg width="20" height="15" viewBox="0 0 20 15" fill="none" xmlns="http://www.w3.org/2000/svg">
<path d="M8 10.0361L13.19 7.03613L8 4.03613V10.0361ZM19.56 2.20613C19.69 2.67613 19.78 3.30613 19.84 4.10613C19.91 4.90613 19.94 5.59613 19.94 6.19613L20 7.03613C20 9.22613 19.84 10.8361 19.56 11.8661C19.31 12.7661 18.73 13.3461 17.83 13.5961C17.36 13.7261 16.5 13.8161 15.18 13.8761C13.88 13.9461 12.69 13.9761 11.59 13.9761L10 14.0361C5.81 14.0361 3.2 13.8761 2.17 13.5961C1.27 13.3461 0.69 12.7661 0.44 11.8661C0.31 11.3961 0.22 10.7661 0.16 9.96613C0.0900001 9.16613 0.0599999 8.47613 0.0599999 7.87613L0 7.03613C0 4.84613 0.16 3.23613 0.44 2.20613C0.69 1.30613 1.27 0.726133 2.17 0.476133C2.64 0.346133 3.5 0.256133 4.82 0.196133C6.12 0.126133 7.31 0.0961328 8.41 0.0961328L10 0.0361328C14.19 0.0361328 16.8 0.196133 17.83 0.476133C18.73 0.726133 19.31 1.30613 19.56 2.20613Z" fill="#232D70"/>
</svg>
